<svg width="16" height="16" viewBox="0 0 16 16" fill="none" xmlns="http://www.w3.org/2000/svg">
<g id="eye">
<path id="Vector" d="M15.968 7.84297C14.6065 4.64178 11.4788 2.57325 8 2.57325C4.52122 2.57325 1.39356 4.64172 0.0319688 7.84297C-0.0106562 7.94316 -0.0106562 8.05631 0.0319688 8.1565C1.39347 11.3581 4.52116 13.4267 8 13.4267C11.4789 13.4267 14.6066 11.3581 15.968 8.1565C16.0107 8.05631 16.0107 7.94316 15.968 7.84297ZM8 12.6257C4.90019 12.6257 2.10759 10.8156 0.837781 7.99978C2.10762 5.18422 4.90028 3.37434 8 3.37434C11.0998 3.37434 13.8924 5.18422 15.1622 7.99972C13.8924 10.8156 11.0998 12.6257 8 12.6257Z" fill="white"/>
<path id="Vector_2" d="M8 4.93203C6.30832 4.93203 4.93207 6.30831 4.93207 7.99997C4.93207 9.69162 6.30835 11.0679 8 11.0679C9.69166 11.0679 11.0679 9.69166 11.0679 7.99997C11.0679 6.30828 9.69166 4.93203 8 4.93203ZM8 10.2669C6.75007 10.2669 5.73313 9.24997 5.73313 8.00003C5.73313 6.75009 6.75007 5.73316 8 5.73316C9.24994 5.73316 10.2669 6.75009 10.2669 8.00003C10.2669 9.24997 9.24994 10.2669 8 10.2669Z" fill="white"/>
<path id="Vector_3" d="M8 6.37119C7.1019 6.37119 6.37115 7.10188 6.37115 8.00003C6.37115 8.22122 6.55044 8.40056 6.77169 8.40056C6.99294 8.40056 7.17222 8.22122 7.17222 8.00003C7.17222 7.54359 7.54353 7.17225 8 7.17225C8.22125 7.17225 8.40053 6.99291 8.40053 6.77172C8.40053 6.55047 8.22119 6.37119 8 6.37119Z" fill="white"/>
</g>
</svg>
